<?xml version="1.0" encoding="iso-8859-1"?>
<!-- Uploaded to: SVG Repo, www.svgrepo.com, Generator: SVG Repo Mixer Tools -->
<svg height="800px" width="800px" version="1.1" id="Layer_1" xmlns="http://www.w3.org/2000/svg" xmlns:xlink="http://www.w3.org/1999/xlink" 
	 viewBox="0 0 512 512" xml:space="preserve">
<path style="fill:#874D20;" d="M255.996,47.304l131.049,164.877l123.71,155.652c2.963,3.729,0.304,9.226-4.463,9.226H255.996H5.708
	c-4.767,0-7.426-5.497-4.463-9.226l123.714-155.652L255.996,47.304L255.996,47.304z"/>
<path style="fill:#A9BE65;" d="M296.724,335.464l87.528-109.355c16.033-20.08,45.517-23.344,65.532-7.257v0.004l0,0
	c20.008,16.091,23.261,45.68,7.228,65.76L356.323,410.451L296.724,335.464z"/>
<path style="fill:#7E9332;" d="M296.724,225.631l87.528-109.357c16.033-20.08,45.517-23.344,65.532-7.257v0.004l0,0
	c20.008,16.091,23.261,45.68,7.228,65.76L356.323,300.617L296.724,225.631z"/>
<path style="fill:#FF4328;" d="M222.559,281.376c0,47.765-38.778,86.486-86.615,86.486S49.33,329.14,49.33,281.376
	s38.778-86.486,86.615-86.486S222.559,233.611,222.559,281.376z"/>
<path style="fill:#C13421;" d="M202.179,281.376c0,36.527-29.655,66.137-66.235,66.137s-66.235-29.61-66.235-66.137
	s29.655-66.137,66.235-66.137S202.179,244.849,202.179,281.376z"/>
<path style="fill:#CF8F3D;" d="M255.996,134.94l131.049,164.877l123.71,155.652c2.963,3.729,0.304,9.226-4.463,9.226H255.996H5.708
	c-4.767,0-7.426-5.497-4.463-9.226l123.714-155.652L255.996,134.94L255.996,134.94z"/>
<path style="fill:#874D20;" d="M264.919,275.577v114.399c0,4.917-3.992,8.904-8.918,8.904s-8.918-3.987-8.918-8.904V275.577
	c0-4.917,3.992-8.904,8.918-8.904S264.919,270.659,264.919,275.577z M184.719,320.148c-4.925,0-8.918,3.987-8.918,8.904v60.924
	c0,4.917,3.992,8.904,8.918,8.904s8.918-3.987,8.918-8.904v-60.924C193.636,324.134,189.644,320.148,184.719,320.148z
	 M327.28,320.148c-4.925,0-8.918,3.987-8.918,8.904v60.924c0,4.917,3.992,8.904,8.918,8.904s8.918-3.987,8.918-8.904v-60.924
	C336.198,324.134,332.205,320.148,327.28,320.148z"/>
</svg>