<?xml version="1.0" encoding="iso-8859-1"?><!-- Uploaded to: SVG Repo, www.svgrepo.com, Generator: SVG Repo Mixer Tools -->
<svg height="800px" id="Layer_1" version="1.1" viewBox="0 0 511.999 511.999" width="800px"
    xmlns="http://www.w3.org/2000/svg" xml:space="preserve">
<path style="fill:#CAEEC5;" d="M492.91,135.022v78.834c0,130.08-106.066,236.509-235.707,236.509S21.497,343.935,21.497,213.855
	v-78.834H492.91z" />
    <path style="fill:#5B5B5B;" d="M239.408,382.238c-18.714,10.843-42.86,4.351-53.665-14.424l-16.301-28.33
	c-9.168-15.934-5.89-35.797,6.752-48.069L17.201,13.305c-2.435-4.262-0.958-9.692,3.301-12.13c4.259-2.438,9.687-0.959,12.123,3.302
	l158.811,277.792c17.214-5.54,36.668,1.487,46.054,17.801l16.297,28.324C264.59,347.172,258.121,371.4,239.408,382.238z" />
    <path style="fill:#CAA661;" d="M492.735,222.532c-4.592,126.101-108.786,227.832-235.53,227.832
	c-129.641,0-235.707-106.429-235.707-236.509v-8.37c19.541,2.521,38.506,8.455,53.592,17.266
	c38.958,22.754,105.385,27.471,137.971,2.021l3.266-2.367c33.466-26.139,99.438-22.697,138.891,0.346
	C394.107,245.464,460.091,247.842,492.735,222.532z" />
    <path style="fill:#9E9D9D;" d="M503.652,503.109c0,4.91-3.978,8.89-8.884,8.89H17.232c-4.907,0-8.884-3.98-8.884-8.89
	c0-4.91,3.978-8.89,8.884-8.89h477.536C499.674,494.221,503.652,498.2,503.652,503.109z" />
    <path style="fill:#97BAA8;" d="M459.595,135.022h33.317v78.834c0,130.08-106.066,236.509-235.707,236.509
	S21.498,343.935,21.498,213.855v-78.834h33.317v78.834c0,112.03,90.792,203.174,202.39,203.174s202.39-91.144,202.39-203.174
	L459.595,135.022L459.595,135.022z" />
    <path style="fill:#5B7F81;" d="M86.786,135.022h20.471l84.179,147.247c17.214-5.54,36.668,1.487,46.054,17.801l16.297,28.324
	c10.802,18.779,4.333,43.007-14.381,53.846c-18.714,10.843-42.86,4.351-53.665-14.424l-16.301-28.33
	c-9.168-15.934-5.89-35.797,6.752-48.069L86.786,135.022z" />
    <path style="fill:#874D20;" d="M312.669,276.342c0,4.91-3.978,8.89-8.884,8.89h-2.247c-4.907,0-8.884-3.98-8.884-8.89
	c0-4.91,3.978-8.89,8.884-8.89h2.247C308.691,267.453,312.669,271.433,312.669,276.342z M386.51,310.875h-2.247
	c-4.907,0-8.884,3.98-8.884,8.89s3.978,8.89,8.884,8.89h2.247c4.907,0,8.884-3.98,8.884-8.89S391.417,310.875,386.51,310.875z
	 M322.22,366.493h-2.247c-4.907,0-8.884,3.98-8.884,8.89s3.977,8.89,8.884,8.89h2.247c4.907,0,8.884-3.98,8.884-8.89
	S327.126,366.493,322.22,366.493z M101.696,280.207h-2.247c-4.907,0-8.884,3.98-8.884,8.89s3.978,8.89,8.884,8.89h2.247
	c4.907,0,8.884-3.98,8.884-8.89S106.603,280.207,101.696,280.207z" />
</svg>